<svg xmlns="http://www.w3.org/2000/svg" viewBox="0 0 100 100" width="100" height="100">
  <defs>
    <linearGradient id="gradient" x1="50%" y1="0%" x2="50%" y2="100%">
      <stop offset="0%" style="stop-color:#E042D3;stop-opacity:1" />
      <stop offset="100%" style="stop-color:#8B4AD3;stop-opacity:1" />
    </linearGradient>
  </defs>
  <!-- Top petal - pointing upwards with rounded top -->
  <path d="M 50 15 C 45 20, 42 28, 50 38 C 58 28, 55 20, 50 15 Z" fill="url(#gradient)"/>
  <!-- Left bottom petal - curving outwards and downwards -->
  <path d="M 50 38 C 38 42, 28 55, 25 75 C 32 68, 42 58, 48 50 C 48 45, 50 40, 50 38 Z" fill="url(#gradient)"/>
  <!-- Right bottom petal - curving outwards and downwards -->
  <path d="M 50 38 C 62 42, 72 55, 75 75 C 68 68, 58 58, 52 50 C 52 45, 50 40, 50 38 Z" fill="url(#gradient)"/>
</svg>
